#!OML:ASF H:\Terrain\Patient Classification 1\Terrain2\Thursday\justin.ASF
:FULLY-SPECIFIED
:DEGREES
2782
root 19.8928 23.6975 18.88 4.00764 -49.3537 -3.07678
lowerback 6.16494 0.381348 0.228157
upperback 3.2474 0.487003 2.61355
thorax -0.133052 0.204254 2.53037
lowerneck -9.10188 -4.33932 -9.84617
upperneck 39.8328 -7.79127 6.17571
head 16.5123 -4.29569 3.12172
rclavicle -5.11871e-014 1.11319e-014
rhumerus -28.1814 -9.48343 -78.7628
rradius 32.1883
rwrist -11.0149
rhand -21.4473 14.299
rfingers 7.12502
rthumb 4.94246 -15.6233
lclavicle -5.11871e-014 1.11319e-014
lhumerus -41.1102 4.87083 84.7402
lradius 31.8505
lwrist 4.58612
lhand -17.2393 19.7475
lfingers 7.12502
lthumb 9.00439 49.5354
rfemur -20.32 -21.0431 25.2825
rtibia 47.6904
rfoot -23.509 -11.147
rtoes 5.08506
lfemur -14.2359 8.92915 -19.1909
ltibia 38.2812
lfoot -22.2337 6.87853
ltoes -8.40371
2783
root 19.8877 23.6979 18.8956 4.85808 -50.4419 -3.93503
lowerback 6.00656 0.240491 0.595718
upperback 3.24465 0.313442 2.76505
thorax -0.0391686 0.118771 2.4909
lowerneck -9.42073 -4.21829 -9.44224
upperneck 40.031 -7.56905 5.76676
head 16.6228 -4.20065 2.89864
rclavicle 3.57812e-014 1.94809e-014
rhumerus -27.9801 -9.49217 -78.9992
rradius 32.2776
rwrist -10.4492
rhand -21.499 14.3034
rfingers 7.12502
rthumb 4.89255 -15.6201
lclavicle 3.57812e-014 1.94809e-014
lhumerus -41.1161 5.31295 84.2915
lradius 31.7575
lwrist 3.98616
lhand -17.1216 19.7374
lfingers 7.12502
lthumb 9.11803 49.5203
rfemur -20.3718 -21.0832 26.0246
rtibia 47.3072
rfoot -22.7319 -11.132
rtoes 3.48876
lfemur -14.2753 8.63381 -18.6345
ltibia 38.408
lfoot -22.3924 7.20643
ltoes -5.37665
2784
root 19.8781 23.6968 18.9095 5.27864 -51.4509 -4.36676
lowerback 5.9763 0.253368 0.84657
upperback 3.23138 0.341618 2.75854
thorax -0.0356034 0.135353 2.34129
lowerneck -9.64703 -4.26625 -9.69857
upperneck 40.302 -7.81961 6.25012
head 16.9056 -4.294 3.11952
rclavicle -5.29761e-014 1.51076e-014
rhumerus -28.1538 -9.44093 -79.1608
rradius 32.6826
rwrist -10.6213
rhand -21.521 14.3259
rfingers 7.12502
rthumb 4.87129 -15.5981
lclavicle -5.29761e-014 1.51076e-014
lhumerus -41.0556 4.71894 84.2145
lradius 31.7161
lwrist 4.16058
lhand -17.3486 20.0979
lfingers 7.12502
lthumb 8.89895 49.8903
rfemur -20.4036 -21.1941 26.3891
rtibia 46.8559
rfoot -22.1751 -11.1025
rtoes 0.39095
lfemur -14.1881 8.39553 -18.3622
ltibia 38.5669
lfoot -22.9119 7.07871
ltoes 1.09615
2785
root 19.8629 23.6786 18.9241 5.39801 -52.3942 -4.39426
lowerback 5.85619 0.360076 0.923218
upperback 3.17715 0.486359 2.73782
thorax -0.0289827 0.209241 2.26846
lowerneck -9.5066 -4.40582 -10.2942
upperneck 40.3105 -8.21598 6.95201
head 17.0117 -4.47394 3.47945
rclavicle -1.04362e-014 2.3059e-014
rhumerus -28.571 -9.49808 -78.9857
rradius 33.2338
rwrist -11.0607
rhand -21.3821 14.1764
rfingers 7.12502
rthumb 5.00544 -15.7444
lclavicle -1.04362e-014 2.3059e-014
lhumerus -40.9677 4.01311 84.3346
lradius 31.5929
lwrist 4.10347
lhand -17.3988 20.4613
lfingers 7.12502
lthumb 8.8505 50.2557
rfemur -20.5384 -21.194 26.4843
rtibia 46.373
rfoot -21.5223 -11.4587
rtoes -4.4091
lfemur -14.1944 9.38107 -18.4932
ltibia 38.709
lfoot -22.8556 7.89724
ltoes -2.52521
2786
root 19.8482 23.6617 18.9442 5.6655 -53.2469 -4.82255
lowerback 5.80683 0.331898 1.10391
upperback 3.1502 0.454818 3.01169
thorax -0.0284588 0.191773 2.4516
lowerneck -9.11373 -4.44087 -10.9264
upperneck 40.1452 -8.2526 7.17804
head 16.8817 -4.57148 3.69082
rclavicle -9.01488e-014 1.43125e-014
rhumerus -28.82 -8.84865 -78.6718
rradius 33.7208
rwrist -11.8331
rhand -21.265 13.6741
rfingers 7.12502
rthumb 5.11843 -16.2441
lclavicle -9.01488e-014 1.43125e-014
lhumerus -41.0068 4.28464 84.4332
lradius 31.3778
lwrist 3.78065
lhand -17.1576 20.3986
lfingers 7.12502
lthumb 9.08323 50.183
rfemur -20.0324 -20.7363 26.5303
rtibia 45.9476
rfoot -22.2093 -10.325
rtoes -0.904276
lfemur -13.9775 10.2227 -18.3322
ltibia 38.8077
lfoot -22.4911 9.53315
ltoes -12.7716
2787
root 19.8369 23.6584 18.9665 5.7831 -54.0232 -5.11935
lowerback 5.82132 0.16977 1.15584
upperback 3.19158 0.236741 3.24183
thorax 0.0135674 0.0789947 2.67304
lowerneck -8.95397 -4.37502 -11.1645
upperneck 40.0168 -8.09091 7.10023
head 16.7566 -4.55869 3.7226
rclavicle -9.44227e-015 6.36111e-015
rhumerus -28.8274 -7.8284 -78.6884
rradius 34.1332
rwrist -12.6189
rhand -21.2702 13.1456
rfingers 7.12502
rthumb 5.11344 -16.7728
lclavicle -9.44227e-015 6.36111e-015
lhumerus -40.9917 4.71546 84.3882
lradius 31.2221
lwrist 4.01552
lhand -17.4261 20.3953
lfingers 7.12502
lthumb 8.82422 50.1908
rfemur -19.3938 -20.5184 26.3836
rtibia 45.5811
rfoot -22.941 -8.82242
rtoes 3.51154
lfemur -13.5964 9.55852 -18.1708
ltibia 38.8727
lfoot -22.766 10.5787
ltoes -14.5892
2788
root 19.8259 23.6621 18.9801 5.98033 -54.8356 -5.16715
lowerback 5.6969 0.0877179 1.16713
upperback 3.15069 0.125979 3.1909
thorax 0.0448602 0.0245217 2.62009
lowerneck -8.95907 -4.34492 -10.9529
upperneck 39.9572 -8.14379 7.15219
head 16.7202 -4.54966 3.69472
rclavicle 5.18828e-014 -1.98785e-014
rhumerus -28.7412 -7.98772 -78.8649
rradius 34.0752
rwrist -12.5468
rhand -21.3565 13.6315
rfingers 7.12502
rthumb 5.0301 -16.2888
lclavicle 5.18828e-014 -1.98785e-014
lhumerus -40.902 4.60507 84.0438
lradius 31.1786
lwrist 4.22148
lhand -17.4613 20.5764
lfingers 7.12502
lthumb 8.79023 50.3734
rfemur -19.381 -20.4007 26.3882
rtibia 45.2835
rfoot -22.7319 -8.68132
rtoes 3.0544
lfemur -13.5514 8.95925 -18.2357
ltibia 38.8777
lfoot -23.3926 10.4396
ltoes -7.3751
2789
root 19.8111 23.6721 18.9869 6.52034 -55.7143 -5.58501
lowerback 5.55613 0.324847 1.64045
upperback 3.04026 0.464505 3.08716
thorax 0.00157146 0.201269 2.22779
lowerneck -8.67039 -4.60732 -11.0471
upperneck 39.8502 -8.74697 7.57118
head 16.7121 -4.7748 3.7983
rclavicle 8.78628e-014 -2.3059e-014
rhumerus -28.804 -9.35183 -78.7229
rradius 33.8961
rwrist -12.1836
rhand -21.569 13.7291
rfingers 7.12502
rthumb 4.82496 -16.196
lclavicle 8.78628e-014 -2.3059e-014
lhumerus -40.7404 3.73971 83.8989
lradius 31.0594
lwrist 4.18719
lhand -17.0464 20.7151
lfingers 7.12502
lthumb 9.1906 50.4948
rfemur -19.2802 -19.432 26.6044
rtibia 44.937
rfoot -23.2685 -7.98249
rtoes 8.47307
lfemur -13.6351 9.26946 -18.0986
ltibia 38.9892
lfoot -23.8221 10.447
ltoes -3.82485
2790
root 19.795 23.6862 18.9955 6.80275 -56.5896 -5.84231
lowerback 5.50173 0.420729 1.94742
upperback 3.02526 0.604381 2.99006
thorax 0.0170482 0.275432 1.94779
lowerneck -8.53886 -4.75905 -11.091
upperneck 39.7343 -9.09407 7.80689
head 16.6874 -4.90481 3.84999
rclavicle 1.0466e-013 3.97569e-015
rhumerus -28.7094 -9.8992 -78.899
rradius 33.8717
rwrist -12.3939
rhand -21.9679 13.175
rfingers 7.12502
rthumb 4.43978 -16.7585
lclavicle 1.0466e-013 3.97569e-015
lhumerus -40.5308 3.56697 83.5401
lradius 30.8745
lwrist 4.01354
lhand -17.1508 20.6793
lfingers 7.12502
lthumb 9.08979 50.4634
rfemur -18.9044 -18.272 26.5453
rtibia 44.5952
rfoot -24.4751 -6.42399
rtoes 16.3866
lfemur -13.5231 9.41395 -18.0615
ltibia 39.0906
lfoot -24.2227 10.9456
ltoes -3.31534
2791
root 19.7847 23.6453 19.0087 6.78492 -57.3413 -5.73008
lowerback 5.42866 -0.0405175 1.5422
upperback 3.06783 -0.0346121 3.12499
thorax 0.114565 -0.0510351 2.34895
lowerneck -8.87843 -4.3664 -11.1777
upperneck 39.7769 -8.4015 7.66477
head 16.6838 -4.65086 3.91391
rclavicle -3.85642e-014 -2.38542e-015
rhumerus -28.2577 -8.90023 -79.3512
rradius 33.691
rwrist -12.29
rhand -22.1881 13.3429
rfingers 7.12502
rthumb 4.22717 -16.5949
lclavicle -3.85642e-014 -2.38542e-015
lhumerus -40.5983 4.93443 82.8819
lradius 30.8432
lwrist 3.95776
lhand -17.643 20.5927
lfingers 7.12502
lthumb 8.61487 50.3969
rfemur -18.8625 -18.4613 26.5702
rtibia 44.1252
rfoot -24.0487 -7.45396
rtoes 9.49292
lfemur -13.568 9.7994 -18.3264
ltibia 39.299
lfoot -24.0822 11.946
ltoes -6.28915
2792
root 19.7695 23.64 19.0195 7.11212 -57.931 -6.05487
lowerback 5.37804 -0.535736 1.11584
upperback 3.07225 -0.721536 3.6196
thorax 0.180728 -0.407824 3.13609
lowerneck -9.16468 -3.97418 -11.6646
upperneck 39.8899 -7.5339 7.31932
head 16.6958 -4.41135 3.99093
rclavicle 1.33186e-014 -8.74653e-015
rhumerus -28.0819 -7.2553 -79.4078
rradius 33.8249
rwrist -12.7201
rhand -22.7951 13.2086
rfingers 7.12502
rthumb 3.64098 -16.7401
lclavicle 1.33186e-014 -8.74653e-015
lhumerus -40.806 6.37499 82.724
lradius 30.8427
lwrist 3.84955
lhand -18.093 20.817
lfingers 7.12502
lthumb 8.18061 50.6386
rfemur -18.5282 -17.7169 26.6181
rtibia 43.6804
rfoot -24.2293 -6.86915
rtoes 12.5023
lfemur -13.5514 10.28 -18.2594
ltibia 39.4245
lfoot -23.708 13.0324
ltoes -11.4032
